<svg width="32" height="32" viewBox="0 0 32 32" fill="none" xmlns="http://www.w3.org/2000/svg">
<path d="M5.33337 26V6.00002C5.33337 5.11597 5.68456 4.26812 6.30968 3.643C6.93481 3.01788 7.78265 2.66669 8.66671 2.66669H25.3334C25.687 2.66669 26.0261 2.80716 26.2762 3.05721C26.5262 3.30726 26.6667 3.6464 26.6667 4.00002V28C26.6667 28.3536 26.5262 28.6928 26.2762 28.9428C26.0261 29.1929 25.687 29.3334 25.3334 29.3334H8.66671C7.78265 29.3334 6.93481 28.9822 6.30968 28.357C5.68456 27.7319 5.33337 26.8841 5.33337 26C5.33337 25.116 5.68456 24.2681 6.30968 23.643C6.93481 23.0179 7.78265 22.6667 8.66671 22.6667H26.6667" fill="#D7D8EF"/>
<path d="M5.33337 26V6.00002C5.33337 5.11597 5.68456 4.26812 6.30968 3.643C6.93481 3.01788 7.78265 2.66669 8.66671 2.66669H25.3334C25.687 2.66669 26.0261 2.80716 26.2762 3.05721C26.5262 3.30726 26.6667 3.6464 26.6667 4.00002V28C26.6667 28.3536 26.5262 28.6928 26.2762 28.9428C26.0261 29.1929 25.687 29.3334 25.3334 29.3334H8.66671C7.78265 29.3334 6.93481 28.9822 6.30968 28.357C5.68456 27.7319 5.33337 26.8841 5.33337 26ZM5.33337 26C5.33337 25.116 5.68456 24.2681 6.30968 23.643C6.93481 23.0179 7.78265 22.6667 8.66671 22.6667H26.6667" stroke="#393A5C" stroke-width="3" stroke-linecap="round" stroke-linejoin="round"/>
<path d="M21.3334 10.9333C21.3265 10.1575 21.0152 9.41545 20.4666 8.86684C19.918 8.31824 19.1759 8.00696 18.4001 8C17.3334 8 16.5334 8.4 16.0001 9.2C15.4667 8.4 14.6667 8 13.6001 8C12.8243 8.00696 12.0822 8.31824 11.5336 8.86684C10.985 9.41545 10.6737 10.1575 10.6667 10.9333C10.6667 11.7333 11.0667 12.5333 11.6001 13.0667C13.0523 14.5037 14.5191 15.926 16.0001 17.3333C17.4745 15.9638 18.9411 14.586 20.4001 13.2C20.697 12.9021 20.9322 12.5485 21.0924 12.1596C21.2525 11.7706 21.3344 11.3539 21.3334 10.9333Z" fill="#E3DA85" stroke="#393A5C" stroke-linecap="round" stroke-linejoin="round"/>
</svg>
