<svg width="16" height="16" viewBox="0 0 16 16" fill="none" xmlns="http://www.w3.org/2000/svg">
<path d="M2.5 3H1.5C1.22386 3 1 3.22386 1 3.5V14C1 14.2761 1.22386 14.5 1.5 14.5H2.5C2.77614 14.5 3 14.2761 3 14V3.5C3 3.22386 2.77614 3 2.5 3Z" stroke="#7173B8" stroke-linejoin="round"/>
<path d="M3.5 7H7.5M3.5 12.5H7.5" stroke="#7173B8" stroke-linecap="round" stroke-linejoin="round"/>
<path d="M7 5H4C3.72386 5 3.5 5.22386 3.5 5.5V14C3.5 14.2761 3.72386 14.5 4 14.5H7C7.27614 14.5 7.5 14.2761 7.5 14V5.5C7.5 5.22386 7.27614 5 7 5Z" stroke="#7173B8" stroke-linejoin="round"/>
<path d="M10.5 1.5H8.5C8.22386 1.5 8 1.72386 8 2V14C8 14.2761 8.22386 14.5 8.5 14.5H10.5C10.7761 14.5 11 14.2761 11 14V2C11 1.72386 10.7761 1.5 10.5 1.5Z" stroke="#7173B8" stroke-linejoin="round"/>
<path d="M13.2019 3.00343L11.9394 3.13625C11.5919 3.17281 11.34 3.49781 11.3791 3.85812L12.4703 13.9078C12.5097 14.2681 12.8256 14.5328 13.1731 14.4966L14.4356 14.3637C14.7831 14.3272 15.035 14.0022 14.9959 13.6419L13.9062 3.59375C13.8653 3.23187 13.5494 2.96687 13.2019 3.00343Z" stroke="#7173B8" stroke-linejoin="round"/>
</svg>
