<svg width="24" height="24" viewBox="0 0 24 24" fill="none" xmlns="http://www.w3.org/2000/svg">
<path d="M10.89 1.76698C11.2285 1.57503 11.6109 1.47412 12 1.47412C12.3891 1.47412 12.7715 1.57503 13.11 1.76698L22.86 7.29198C23.2061 7.48826 23.4939 7.7728 23.6942 8.11659C23.8945 8.46037 24 8.85112 24 9.24898V18.75C24 19.3467 23.7629 19.919 23.341 20.341C22.919 20.7629 22.3467 21 21.75 21H2.25C1.65326 21 1.08097 20.7629 0.65901 20.341C0.237053 19.919 0 19.3467 0 18.75L0 9.24998C0 8.43998 0.435 7.69198 1.14 7.29198L10.89 1.76698ZM12.37 3.07198C12.2572 3.008 12.1297 2.97436 12 2.97436C11.8703 2.97436 11.7428 3.008 11.63 3.07198L2.314 8.35198L9.724 12.585C10.3778 12.0855 11.1777 11.8149 12.0005 11.8149C12.8233 11.8149 13.6232 12.0855 14.277 12.585L21.687 8.35098L12.37 3.07198ZM20.65 19.5L13.39 13.796C12.9936 13.4846 12.5041 13.3153 12 13.3153C11.4959 13.3153 11.0064 13.4846 10.61 13.796L3.35 19.5H20.65ZM22.5 9.61398L15.55 13.585L22.213 18.821C22.303 18.8923 22.373 18.979 22.423 19.081C22.4737 18.978 22.5 18.8648 22.5 18.75V9.61398ZM8.45 13.585L1.5 9.61398V18.75C1.50133 18.87 1.52667 18.98 1.576 19.08C1.62538 18.9788 1.69721 18.8902 1.786 18.821L8.45 13.585Z" fill="#7173B8"/>
</svg>
